# 3ds Max Wavefront OBJ Exporter v0.97b - (c)2007 guruware
# File Created: 14.11.2014 21:14:49

mtllib water.mtl

#
# object Box001
#

v  1742.2639 0.0000 1705.5459
v  1788.2999 828.3845 1728.4697
v  704.8323 828.3845 1728.4697
v  709.6917 0.0000 1705.7607
v  -389.2181 828.3845 1728.4697
v  -393.4604 0.0000 1710.2029
v  -389.2181 828.3845 193.6697
v  -409.7456 0.0000 194.5253
v  -389.2181 828.3845 -1351.7957
v  -394.0055 0.0000 -1342.7639
v  704.8323 828.3845 -1351.7957
v  697.6251 0.0000 -1339.5686
v  1788.2999 828.3845 -1351.7957
v  1742.7175 0.0000 -1345.4146
v  1743.2100 0.0000 184.5623
v  1788.2999 828.3845 193.6697
v  693.4251 0.0000 204.9965
# 17 vertices

vn 0.0001 -0.0275 0.9996
vn 0.0020 -0.0247 0.9997
vn -0.9999 0.0149 0.0053
vn -0.9999 0.0152 -0.0051
vn 0.0015 -0.0128 -0.9999
vn -0.0027 -0.0111 -0.9999
vn 0.9985 -0.0546 -0.0002
vn 0.9985 -0.0549 0.0003
vn 0.0000 -1.0000 -0.0000
# 9 vertex normals

vt 1.0000 1.0000 1.0000
vt 108.8467 -152.9800 83.3385
vt 0.5000 -152.9800 83.3385
vt -108.9051 -152.9800 83.3385
vt -108.9050 0.5000 83.3385
vt -108.9050 155.0466 83.3385
vt 0.5000 155.0465 83.3385
vt 108.8468 155.0465 83.3385
vt 108.8468 0.5000 83.3385
# 9 texture coords

g Box001
usemtl wire_154215229
s off
f 1/1/1 2/2/1 3/3/1 4/1/1 
f 3/3/2 5/4/2 6/1/2 4/1/2 
f 6/1/3 5/4/3 7/5/3 8/1/3 
f 7/5/4 9/6/4 10/1/4 8/1/4 
f 9/6/5 11/7/5 12/1/5 10/1/5 
f 11/7/6 13/8/6 14/1/6 12/1/6 
f 15/1/7 14/1/7 13/8/7 16/9/7 
f 16/9/8 2/2/8 1/1/8 15/1/8 
f 6/1/9 8/1/9 17/1/9 4/1/9 
f 15/1/9 17/1/9 12/1/9 14/1/9 
f 8/1/9 10/1/9 12/1/9 17/1/9 
f 1/1/9 4/1/9 17/1/9 15/1/9 
# 12 polygons

